<svg t="1618745339456" class="icon" viewBox="0 0 1024 1024" version="1.1" xmlns="http://www.w3.org/2000/svg" p-id="2145" width="200" height="200"><path d="M693.034667 451.669333l-211.2 211.157334c-15.957333 16-44.373333 16-60.288 0L361.130667 602.453333a42.026667 42.026667 0 0 1-12.373334-30.122666c0-11.434667 4.352-22.186667 12.373334-30.165334l30.165333 30.165334a42.538667 42.538667 0 0 0 60.330667 0 42.666667 42.666667 0 0 0 0-60.330667l-30.165334-30.165333 30.165334-30.165334 30.165333 30.165334a42.538667 42.538667 0 0 0 60.330667 0 42.666667 42.666667 0 0 0 0-60.330667L512 391.338667l30.165333-30.208 30.165334 30.208a42.538667 42.538667 0 0 0 60.330666 0 42.624 42.624 0 0 0 0-60.330667l-21.76-21.802667a85.76 85.76 0 0 1 21.802667-3.157333c21.845333 0 43.690667 8.277333 60.330667 24.917333 33.28 33.28 33.28 87.424 0 120.704m180.992-301.696a42.624 42.624 0 0 0-60.330667 0l-94.805333 94.72c-65.408-38.314667-150.826667-30.122667-206.890667 25.941334l-211.157333 211.157333a126.976 126.976 0 0 0-37.418667 90.538667c0 34.304 13.269333 66.432 37.418667 90.453333L240.469333 723.2a42.666667 42.666667 0 0 0-60.330666 60.330667l60.330666 60.330666a42.496 42.496 0 0 0 60.330667 0 42.666667 42.666667 0 0 0 0-60.330666l60.373333-60.373334a126.848 126.848 0 0 0 90.496 37.418667c34.261333 0 66.389333-13.269333 90.496-37.418667l211.2-211.2c56.064-56.021333 64.256-141.44 25.898667-206.933333l94.762667-94.72a42.624 42.624 0 0 0 0-60.330667" fill="#F56C6C" p-id="2146"></path></svg>